<?xml version="1.0" encoding="utf-8"?>
<!-- Generator: Adobe Illustrator 18.0.0, SVG Export Plug-In . SVG Version: 6.00 Build 0)  -->
<!DOCTYPE svg PUBLIC "-//W3C//DTD SVG 1.1//EN" "http://www.w3.org/Graphics/SVG/1.1/DTD/svg11.dtd">
<svg version="1.1" id="Layer_1" xmlns="http://www.w3.org/2000/svg" xmlns:xlink="http://www.w3.org/1999/xlink" x="0px" y="0px"
	 viewBox="0 0 32 32" enable-background="new 0 0 32 32" xml:space="preserve">
<g>
	<g>
		<g opacity="0.15">
			<path d="M3.6,23.9c0,0,1.8,0,2.9-0.2c1-0.2,2.7-1.7,3.8-3.4c2.6-4.1,4.1-12.3,7.9-15.5c3.8-3.2,9-3.6,9.9-3.3v5.7
				c-6.2,0.1-7.4,5.9-7.4,5.9h4.1v5.6h-6.5c0,0-0.5,2.2-3.7,6.1C9.9,30.3,3.6,30,3.6,30V23.9z"/>
			<path d="M15.6,27.2h-0.3V27h0.8v0.2h-0.3v1h-0.2V27.2z"/>
			<path d="M17.1,27.7c0-0.1,0-0.3,0-0.5h0c0,0.2-0.1,0.3-0.1,0.5l-0.1,0.5h-0.2l-0.1-0.5c0-0.1-0.1-0.3-0.1-0.5h0
				c0,0.2,0,0.3,0,0.5l0,0.4h-0.2l0.1-1.2h0.3l0.1,0.4c0,0.1,0.1,0.3,0.1,0.4h0c0-0.1,0.1-0.3,0.1-0.4L17,27h0.3l0.1,1.2h-0.2
				L17.1,27.7z"/>
		</g>
		<g>
			<g>
				<g>
					<path fill="#FFFFFF" d="M3.9,24.4c0,0,1.8,0,2.9-0.2c1-0.2,2.7-1.7,3.8-3.4c2.6-4.1,4.1-12.3,7.9-15.5c3.8-3.2,9-3.6,9.9-3.3
						v5.7c-6.2,0.1-7.4,5.9-7.4,5.9h4.1v5.6h-6.5c0,0-0.5,2.2-3.7,6.1c-4.6,5.6-10.9,5.2-10.9,5.2V24.4z"/>
				</g>
				<g>
					<path fill="#FFFFFF" d="M15.9,27.7h-0.3v-0.2h0.8v0.2h-0.3v1h-0.2V27.7z"/>
					<path fill="#FFFFFF" d="M17.4,28.2c0-0.1,0-0.3,0-0.5h0c0,0.2-0.1,0.3-0.1,0.5l-0.1,0.5H17l-0.1-0.5c0-0.1-0.1-0.3-0.1-0.5h0
						c0,0.2,0,0.3,0,0.5l0,0.4h-0.2l0.1-1.2h0.3l0.1,0.4c0,0.1,0.1,0.3,0.1,0.4h0c0-0.1,0.1-0.3,0.1-0.4l0.1-0.4h0.3l0.1,1.2h-0.2
						L17.4,28.2z"/>
				</g>
			</g>
		</g>
	</g>
	<g opacity="0.25">
		<g opacity="0.15">
			<path d="M27.5,1.6c0.3,0,0.6,0,0.7,0.1v5.7c-6.2,0.1-7.4,5.9-7.4,5.9H25v5.6h-6.5c0,0-0.5,2.2-3.7,6.1c-4.1,5-9.5,5.2-10.7,5.2
				c-0.1,0-0.2,0-0.2,0v-6c0,0,1.8,0,2.9-0.2c1-0.2,2.7-1.7,3.8-3.4C13,16.4,14.5,8.3,18.3,5C21.5,2.3,25.7,1.6,27.5,1.6 M27.5,1.9
				c-1.9,0-6,0.7-9,3.3c-2.3,1.9-3.7,5.7-5.1,9.3c-0.9,2.3-1.7,4.5-2.7,6.1c-1.1,1.8-2.8,3.3-4,3.6c-0.8,0.2-2.1,0.2-2.7,0.2V30
				c1.1,0,6.5-0.3,10.5-5.2c3.1-3.8,3.7-6,3.7-6l0-0.2l0.2,0h6.3v-5.1h-3.9h-0.3l0.1-0.3c0-0.1,1.2-5.8,7.4-6.1V1.9
				C27.9,1.9,27.7,1.9,27.5,1.9L27.5,1.9z"/>
			<polyline points="16.2,27.2 16.2,27.5 16,27.5 16,28.4 15.7,28.4 15.7,27.5 15.4,27.5 15.4,27.2 16.2,27.2 			"/>
			<path d="M17.5,27.2l0.1,1.2h-0.2l0-0.5c0-0.1,0-0.3,0-0.5h0c0,0.2-0.1,0.3-0.1,0.5L17,28.4h-0.2l-0.1-0.5c0-0.1-0.1-0.3-0.1-0.5
				h0c0,0.2,0,0.3,0,0.5l0,0.4h-0.2l0.1-1.2h0.3l0.1,0.4c0,0.1,0.1,0.3,0.1,0.4h0c0-0.1,0.1-0.3,0.1-0.4l0.1-0.4H17.5"/>
		</g>
		<g>
			<g>
				<g>
					<g>
						<path fill="#FFFFFF" d="M27.6,1.9c0.3,0,0.6,0,0.7,0.1v5.7c-6.2,0.1-7.4,5.9-7.4,5.9h4.1v5.6h-6.5c0,0-0.5,2.2-3.7,6.1
							c-4.1,5-9.5,5.2-10.7,5.2c-0.1,0-0.2,0-0.2,0v-6c0,0,1.8,0,2.9-0.2c1-0.2,2.7-1.7,3.8-3.4c2.6-4.1,4.1-12.3,7.9-15.5
							C21.6,2.6,25.9,1.9,27.6,1.9 M27.6,2.1c-1.9,0-6,0.7-9,3.3c-2.3,1.9-3.7,5.7-5.1,9.3c-0.9,2.3-1.7,4.5-2.7,6.1
							c-1.1,1.8-2.8,3.3-4,3.6c-0.8,0.2-2.1,0.2-2.7,0.2v5.5c1.1,0,6.5-0.3,10.5-5.2c3.1-3.8,3.7-6,3.7-6l0-0.2l0.2,0h6.3v-5.1H21
							h-0.3l0.1-0.3c0-0.1,1.2-5.8,7.4-6.1V2.2C28,2.1,27.8,2.1,27.6,2.1L27.6,2.1z"/>
					</g>
				</g>
				<g>
					<g>
						<polyline fill="#FFFFFF" points="16.4,27.5 16.4,27.7 16.1,27.7 16.1,28.7 15.9,28.7 15.9,27.7 15.6,27.7 15.6,27.5 
							16.4,27.5 						"/>
					</g>
					<g>
						<path fill="#FFFFFF" d="M17.6,27.5l0.1,1.2h-0.2l0-0.5c0-0.1,0-0.3,0-0.5h0c0,0.2-0.1,0.3-0.1,0.5l-0.1,0.5H17l-0.1-0.5
							c0-0.1-0.1-0.3-0.1-0.5h0c0,0.2,0,0.3,0,0.5l0,0.4h-0.2l0.1-1.2h0.3l0.1,0.4c0,0.1,0.1,0.3,0.1,0.4h0c0-0.1,0.1-0.3,0.1-0.4
							l0.1-0.4H17.6"/>
					</g>
				</g>
			</g>
		</g>
	</g>
	<g opacity="0.25">
		<g opacity="0.15">
			<path d="M4,30.1C3.9,30.1,3.9,30.1,4,30.1l-0.1-5.8c0.4,0,1.9,0,2.8-0.2c1.1-0.2,2.8-1.7,3.9-3.5c1-1.6,1.8-3.8,2.7-6.1
				c1.4-3.6,2.8-7.4,5.1-9.4c3.1-2.6,7.2-3.4,9.1-3.4c0.2,0,0.5,0,0.6,0v5.4c-6.1,0.2-7.4,5.9-7.4,6l0,0.1h0.1h4v5.4h-6.4h-0.1
				l0,0.1c0,0-0.6,2.2-3.7,6.1C10.5,29.8,5,30.1,4,30.1L4,30.1z"/>
			<path d="M27.5,1.6c0.3,0,0.6,0,0.7,0.1v5.7c-6.2,0.1-7.4,5.9-7.4,5.9H25v5.6h-6.5c0,0-0.5,2.2-3.7,6.1c-4.1,5-9.5,5.2-10.7,5.2
				c-0.1,0-0.2,0-0.2,0v-6c0,0,1.8,0,2.9-0.2c1-0.2,2.7-1.7,3.8-3.4C13,16.4,14.5,8.3,18.3,5C21.5,2.3,25.7,1.6,27.5,1.6 M27.5,1.9
				c-1.9,0-6,0.7-9,3.3c-2.3,1.9-3.7,5.7-5.1,9.3c-0.9,2.3-1.7,4.5-2.7,6.1c-1.1,1.8-2.8,3.3-4,3.6c-0.8,0.2-2.1,0.2-2.7,0.2V30
				c1.1,0,6.5-0.3,10.5-5.2c3.1-3.8,3.7-6,3.7-6l0-0.2l0.2,0h6.3v-5.1h-3.9h-0.3l0.1-0.3c0-0.1,1.2-5.8,7.4-6.1V1.9
				C27.9,1.9,27.7,1.9,27.5,1.9L27.5,1.9z"/>
			<path d="M15.7,27.5h-0.3v-0.2h0.8v0.2H16v1h-0.2V27.5z"/>
			<polyline points="16.2,27.2 16.2,27.5 16,27.5 16,28.4 15.7,28.4 15.7,27.5 15.4,27.5 15.4,27.2 16.2,27.2 			"/>
			<path d="M17.3,28c0-0.1,0-0.3,0-0.5h0c0,0.2-0.1,0.3-0.1,0.5L17,28.4h-0.2l-0.1-0.5c0-0.1-0.1-0.3-0.1-0.5h0c0,0.2,0,0.3,0,0.5
				l0,0.4h-0.2l0.1-1.2h0.3l0.1,0.4c0,0.1,0.1,0.3,0.1,0.4h0c0-0.1,0.1-0.3,0.1-0.4l0.1-0.4h0.3l0.1,1.2h-0.2L17.3,28z"/>
			<path d="M17.5,27.2l0.1,1.2h-0.2l0-0.5c0-0.1,0-0.3,0-0.5h0c0,0.2-0.1,0.3-0.1,0.5L17,28.4h-0.2l-0.1-0.5c0-0.1-0.1-0.3-0.1-0.5
				h0c0,0.2,0,0.3,0,0.5l0,0.4h-0.2l0.1-1.2h0.3l0.1,0.4c0,0.1,0.1,0.3,0.1,0.4h0c0-0.1,0.1-0.3,0.1-0.4l0.1-0.4H17.5"/>
		</g>
		<g>
			<g>
				<g>
					<g>
						<path fill="#FFFFFF" d="M4.1,30.3C4.1,30.3,4,30.3,4.1,30.3L4,24.6c0.4,0,1.9,0,2.8-0.2c1.1-0.2,2.8-1.7,3.9-3.5
							c1-1.6,1.8-3.8,2.7-6.1c1.4-3.6,2.8-7.4,5.1-9.4C21.6,2.7,25.7,2,27.6,2c0.2,0,0.5,0,0.6,0v5.4c-6.1,0.2-7.4,5.9-7.4,6l0,0.1
							H21h4V19h-6.4h-0.1l0,0.1c0,0-0.6,2.2-3.7,6.1C10.7,30.1,5.2,30.3,4.1,30.3L4.1,30.3z"/>
						<path fill="#FFFFFF" d="M27.6,1.9c0.3,0,0.6,0,0.7,0.1v5.7c-6.2,0.1-7.4,5.9-7.4,5.9h4.1v5.6h-6.5c0,0-0.5,2.2-3.7,6.1
							c-4.1,5-9.5,5.2-10.7,5.2c-0.1,0-0.2,0-0.2,0v-6c0,0,1.8,0,2.9-0.2c1-0.2,2.7-1.7,3.8-3.4c2.6-4.1,4.1-12.3,7.9-15.5
							C21.6,2.6,25.9,1.9,27.6,1.9 M27.6,2.1c-1.9,0-6,0.7-9,3.3c-2.3,1.9-3.7,5.7-5.1,9.3c-0.9,2.3-1.7,4.5-2.7,6.1
							c-1.1,1.8-2.8,3.3-4,3.6c-0.8,0.2-2.1,0.2-2.7,0.2v5.5c1.1,0,6.5-0.3,10.5-5.2c3.1-3.8,3.7-6,3.7-6l0-0.2l0.2,0h6.3v-5.1H21
							h-0.3l0.1-0.3c0-0.1,1.2-5.8,7.4-6.1V2.2C28,2.1,27.8,2.1,27.6,2.1L27.6,2.1z"/>
					</g>
				</g>
				<g>
					<g>
						<path fill="#FFFFFF" d="M15.9,27.7h-0.3v-0.2h0.8v0.2h-0.3v1h-0.2V27.7z"/>
						<polyline fill="#FFFFFF" points="16.4,27.5 16.4,27.7 16.1,27.7 16.1,28.7 15.9,28.7 15.9,27.7 15.6,27.7 15.6,27.5 
							16.4,27.5 						"/>
					</g>
					<g>
						<path fill="#FFFFFF" d="M17.4,28.2c0-0.1,0-0.3,0-0.5h0c0,0.2-0.1,0.3-0.1,0.5l-0.1,0.5H17l-0.1-0.5c0-0.1-0.1-0.3-0.1-0.5h0
							c0,0.2,0,0.3,0,0.5l0,0.4h-0.2l0.1-1.2h0.3l0.1,0.4c0,0.1,0.1,0.3,0.1,0.4h0c0-0.1,0.1-0.3,0.1-0.4l0.1-0.4h0.3l0.1,1.2h-0.2
							L17.4,28.2z"/>
						<path fill="#FFFFFF" d="M17.6,27.5l0.1,1.2h-0.2l0-0.5c0-0.1,0-0.3,0-0.5h0c0,0.2-0.1,0.3-0.1,0.5l-0.1,0.5H17l-0.1-0.5
							c0-0.1-0.1-0.3-0.1-0.5h0c0,0.2,0,0.3,0,0.5l0,0.4h-0.2l0.1-1.2h0.3l0.1,0.4c0,0.1,0.1,0.3,0.1,0.4h0c0-0.1,0.1-0.3,0.1-0.4
							l0.1-0.4H17.6"/>
					</g>
				</g>
			</g>
		</g>
	</g>
</g>
</svg>
