<?xml version="1.0" encoding="utf-8"?>
<!-- Generator: Adobe Illustrator 15.0.2, SVG Export Plug-In . SVG Version: 6.00 Build 0)  -->
<!DOCTYPE svg PUBLIC "-//W3C//DTD SVG 1.1//EN" "http://www.w3.org/Graphics/SVG/1.1/DTD/svg11.dtd">
<svg version="1.1" id="Layer_1" xmlns="http://www.w3.org/2000/svg" xmlns:xlink="http://www.w3.org/1999/xlink" x="0px" y="0px"
	 width="612px" height="792px" viewBox="0 0 612 792" enable-background="new 0 0 612 792" xml:space="preserve">
<text transform="matrix(1 0 0 1 113.9224 167.9219)" fill="#FFFFFF" stroke="#FFFFFF" stroke-miterlimit="10" font-family="'Yellowjackets-Regular'" font-size="70" letter-spacing="2">capture    art</text>
<text transform="matrix(1 0 0 1 448 154)" font-family="'BradleyHandITCTTBold'" font-size="70"> </text>
<path fill="#00AEEF" d="M287.319,159.439c0,0-6.777-11.697-0.928-22.373c0,0-9.004,2.692-12.439,12.44
	C273.951,149.506,276.829,157.583,287.319,159.439z"/>
<path fill="#00AEEF" d="M286.696,152.957c0,0,6.604-11.798,18.768-12.215c0,0-6.91-6.371-17.046-4.35
	C288.418,136.391,282.94,142.988,286.696,152.957z"/>
<path fill="#00AEEF" d="M292.46,149.167c0,0,13.519-0.177,19.96,10.151c0,0,2.064-9.169-4.751-16.938
	C307.669,142.38,299.217,140.932,292.46,149.167z"/>
<path fill="#00AEEF" d="M298.331,152.367c0,0,6.678,11.756,0.741,22.38c0,0,9.026-2.615,12.543-12.334
	C311.614,162.413,308.804,154.312,298.331,152.367z"/>
<path fill="#00AEEF" d="M280.191,170.405c0,0,13.458-1.303,18.73-12.272c0,0,3.056,8.887-2.87,17.356
	C296.052,175.489,287.809,177.851,280.191,170.405z"/>
<path fill="#00AEEF" d="M273.139,152.016c0,0,7.811,11.035,19.951,10.168c0,0-6.199,7.062-16.492,6.123
	C276.598,168.307,270.455,162.325,273.139,152.016z"/>
</svg>
