<?xml version="1.0" encoding="utf-8"?>
<!-- Generator: Adobe Illustrator 15.0.2, SVG Export Plug-In . SVG Version: 6.00 Build 0)  -->
<!DOCTYPE svg PUBLIC "-//W3C//DTD SVG 1.1//EN" "http://www.w3.org/Graphics/SVG/1.1/DTD/svg11.dtd">
<svg version="1.1" id="Layer_1" xmlns="http://www.w3.org/2000/svg" xmlns:xlink="http://www.w3.org/1999/xlink" x="0px" y="0px"
	 width="40.254px" height="39.85px" viewBox="0 0 40.254 39.85" enable-background="new 0 0 40.254 39.85" xml:space="preserve">
<text transform="matrix(1 0 0 1 175.54 18.0049)" font-family="'BradleyHandITCTTBold'" font-size="70"> </text>
<path fill="#FFFFFF" d="M14.859,23.444c0,0-6.777-11.697-0.928-22.373c0,0-9.004,2.692-12.439,12.44
	C1.491,13.511,4.369,21.588,14.859,23.444z"/>
<path fill="#FFFFFF" d="M14.236,16.961c0,0,6.604-11.798,18.768-12.215c0,0-6.91-6.371-17.046-4.35
	C15.958,0.396,10.48,6.993,14.236,16.961z"/>
<path fill="#FFFFFF" d="M20,13.172c0,0,13.519-0.177,19.96,10.151c0,0,2.064-9.169-4.751-16.938
	C35.209,6.385,26.757,4.937,20,13.172z"/>
<path fill="#FFFFFF" d="M25.871,16.372c0,0,6.678,11.756,0.741,22.38c0,0,9.026-2.615,12.543-12.334
	C39.154,26.418,36.344,18.316,25.871,16.372z"/>
<path fill="#FFFFFF" d="M7.731,34.41c0,0,13.458-1.303,18.73-12.272c0,0,3.056,8.887-2.87,17.356
	C23.592,39.494,15.349,41.856,7.731,34.41z"/>
<path fill="#FFFFFF" d="M0.679,16.021c0,0,7.811,11.035,19.951,10.168c0,0-6.199,7.062-16.492,6.123
	C4.138,32.312-2.005,26.33,0.679,16.021z"/>
</svg>
